<svg width="200" height="200" viewBox="0 0 200 200" xmlns="http://www.w3.org/2000/svg"><title>Mobile Portrait</title><g fill="none" fill-rule="evenodd"><path d="M18.774 17.681l-4.386-4.385a6.954 6.954 0 1 0-1.093 1.093l4.386 4.385a.77.77 0 0 0 1.093 0 .773.773 0 0 0 0-1.093zm-9.82-3.317a5.41 5.41 0 1 1 0-10.819 5.41 5.41 0 0 1 0 10.819zM30 2a9 9 0 1 0 0 18 9 9 0 0 0 0-18zm.044 16.2a7.2 7.2 0 1 1 0-14.4 7.2 7.2 0 0 1 0 14.4zm-3.38-6.525a.86.86 0 0 1 0-1.242.926.926 0 0 1 1.29-.012l1.087 1.058 3.006-2.922a.92.92 0 0 1 1.276 0c.365.356.365.911.013 1.253l-3.793 3.688a.724.724 0 0 1-1.003 0l-1.875-1.823z" fill="#FFF"/><path d="M30 2a9 9 0 1 0 0 18 9 9 0 0 0 0-18zm.044 16.2a7.2 7.2 0 1 1 0-14.4 7.2 7.2 0 0 1 0 14.4zm-3.38-6.525a.86.86 0 0 1 0-1.242.926.926 0 0 1 1.29-.012l1.087 1.058 3.006-2.922a.92.92 0 0 1 1.276 0c.365.356.365.911.013 1.253l-3.793 3.688a.724.724 0 0 1-1.003 0l-1.875-1.823zM133.5 2c.3 0 .6.2.7.6l1.4 4.4c.2.5.6.8 1.1.8h4.5c.8 0 1.1 1 .5 1.5l-3.6 2.7c-.4.3-.6.8-.4 1.3l1.4 4.4c.2.8-.6 1.4-1.2.9l-3.6-2.7c-.4-.3-.9-.3-1.3 0l-3.6 2.7c-.6.5-1.5-.2-1.2-.9l1.4-4.4c.2-.5 0-1-.4-1.3l-3.6-2.7c-.6-.5-.3-1.5.5-1.5h4.5c.5 0 .9-.3 1.1-.8l1.4-4.4c-.2-.4.1-.6.4-.6h-21c.3 0 .6.2.7.6l1.4 4.4c.2.5.6.8 1.1.8h4.5c.8 0 1.1 1 .5 1.5l-3.6 2.7c-.4.3-.6.8-.4 1.3l1.4 4.4c.2.8-.6 1.4-1.2.9l-3.6-2.7c-.4-.3-.9-.3-1.3 0l-3.6 2.7c-.6.5-1.5-.2-1.2-.9l1.4-4.4c.2-.5 0-1-.4-1.3l-3.6-2.7c-.6-.5-.3-1.5.5-1.5h4.5c.5 0 .9-.3 1.1-.8l1.4-4.4c-.2-.4.1-.6.4-.6h-21c.3 0 .6.2.7.6L93.6 7c.2.5.6.8 1.1.8h4.5c.8 0 1.1 1 .5 1.5L96.1 12c-.4.3-.6.8-.4 1.3l1.4 4.4c.2.8-.6 1.4-1.2.9l-3.6-2.7c-.4-.3-.9-.3-1.3 0l-3.6 2.7c-.6.5-1.5-.2-1.2-.9l1.4-4.4c.2-.5 0-1-.4-1.3l-3.6-2.7c-.6-.5-.3-1.5.5-1.5h4.5c.5 0 .9-.3 1.1-.8l1.4-4.4c-.2-.4.1-.6.4-.6h-21c.3 0 .6.2.7.6L72.6 7c.2.5.6.8 1.1.8h4.5c.8 0 1.1 1 .5 1.5L75.1 12c-.4.3-.6.8-.4 1.3l1.4 4.4c.2.8-.6 1.4-1.2.9l-3.6-2.7c-.4-.3-.9-.3-1.3 0l-3.6 2.7c-.6.5-1.5-.2-1.2-.9l1.4-4.4c.2-.5 0-1-.4-1.3l-3.6-2.7c-.6-.5-.3-1.5.5-1.5h4.5c.5 0 .9-.3 1.1-.8l1.4-4.4c-.2-.4.1-.6.4-.6h-21c.3 0 .6.2.7.6L51.6 7c.2.5.6.8 1.1.8h4.5c.8 0 1.1 1 .5 1.5L54.1 12c-.4.3-.6.8-.4 1.3l1.4 4.4c.2.8-.6 1.4-1.2.9l-3.6-2.7c-.4-.3-.9-.3-1.3 0l-3.6 2.7c-.6.5-1.5-.2-1.2-.9l1.4-4.4c.2-.5 0-1-.4-1.3l-3.9-2.6c-.6-.5-.3-1.6.5-1.6h4.5c.5 0 .9-.3 1.1-.8l1.4-4.4c.1-.4.4-.6.7-.6H41v17h101V2h-8.5z" fill="#FFF"/><g fill="#FFF"><path d="M147 2h20v3h-20zM147 9h20v3h-20zM147 16h20v3h-20z"/></g><path d="M14.04 45.086c0 1.704-1.36 3.086-3.037 3.086-1.677 0-3.038-1.382-3.038-3.086 0-1.705 1.36-3.086 3.038-3.086 1.676 0 3.037 1.381 3.037 3.086zm-7.878 5.68l.519 5.857c.04.451.403.802.848.82l.384.016a.604.604 0 0 1 .574.57l.464 6.15a.882.882 0 0 0 .874.821h2.377c.458 0 .84-.358.874-.823l.461-6.152a.602.602 0 0 1 .573-.566l.382-.017a.881.881 0 0 0 .834-.808l.516-5.867c0-.78-.623-1.415-1.393-1.415H7.556c-.77 0-1.394.634-1.394 1.415zm10.888 0l-.52 5.977a2.116 2.116 0 0 1-1.477 1.838.583.583 0 0 0-.386.47l-.29 3.276a.658.658 0 0 0 .65.721h1.78a.773.773 0 0 0 .766-.722l.404-5.4a.53.53 0 0 1 .504-.495l.334-.015a.773.773 0 0 0 .732-.71L20 50.558c0-.685-.548-1.24-1.222-1.24h-1.424a.468.468 0 0 0-.438.618c.087.261.134.54.134.83zm-1.658-7.873a.523.523 0 0 0-.405.704 4.206 4.206 0 0 1-.379 3.759.527.527 0 0 0 .273.77c1.82.655 3.735-.825 3.541-2.826-.144-1.495-1.505-2.632-3.03-2.407zm-10.31 7.043a.468.468 0 0 0-.437-.619H3.222c-.675 0-1.222.556-1.222 1.241l.452 5.148c.034.39.347.694.733.71l.334.015a.528.528 0 0 1 .503.496l.404 5.399c.03.408.365.722.768.722h1.778a.658.658 0 0 0 .65-.721l-.289-3.276a.586.586 0 0 0-.387-.47 2.116 2.116 0 0 1-1.476-1.838l-.521-5.976c0-.29.047-.57.134-.83zM3.578 45.3c-.193 2 1.721 3.481 3.54 2.826a.527.527 0 0 0 .274-.77 4.206 4.206 0 0 1-.379-3.759.523.523 0 0 0-.404-.704c-1.525-.225-2.887.912-3.031 2.407zM17.71 30.196h-6.284c-.68 0-1.23.55-1.23 1.23v6.282a.663.663 0 0 1-.736.652 8.197 8.197 0 0 1-7.457-8.396c.119-4.277 3.684-7.842 7.96-7.96a8.197 8.197 0 0 1 8.401 7.51c.03.372-.282.682-.654.682zm1.544 1.646h-6.583a.829.829 0 0 0-.83.829v6.584c0 .446.39.786.835.741a8.198 8.198 0 0 0 7.32-7.32.752.752 0 0 0-.742-.834zM7.019 72.213c-.507 0-.917-.43-.917-.959V68.96c0-.53.41-.959.917-.959.505 0 .916.429.916.959v2.295c0 .529-.41.959-.916.959zm7.93-.959V68.96c0-.53-.41-.959-.916-.959s-.916.429-.916.959v2.295c0 .529.41.959.916.959s.916-.43.916-.959zm3.051-.36v16.594c0 .835-.647 1.512-1.445 1.512H4.445C3.647 89 3 88.323 3 87.488V70.893c0-.834.647-1.511 1.445-1.511h.402c.274 0 .496.233.496.518v1.346c0 1.062.905 1.902 1.952 1.725.822-.14 1.39-.948 1.39-1.818V69.9c0-.285.223-.518.496-.518h2.692c.275 0 .496.233.496.518v1.346c0 1.062.905 1.902 1.953 1.725.822-.14 1.39-.948 1.39-1.819V69.9c0-.285.222-.518.496-.518h.347c.798 0 1.445.677 1.445 1.511zM11.965 84.02c0-.46-.356-.833-.796-.833H6.781c-.44 0-.797.373-.797.833 0 .46.357.833.797.833h4.388c.44 0 .796-.373.796-.833zm3.051-3.524c0-.46-.356-.833-.796-.833H6.78c-.439 0-.796.372-.796.833 0 .46.357.833.797.833h7.44c.439 0 .795-.373.795-.833zm0-3.56c0-.46-.356-.832-.796-.832H6.78c-.439 0-.796.373-.796.833 0 .46.357.833.797.833h7.44c.439 0 .795-.372.795-.833z" fill="#48626C"/></g></svg>