<svg xmlns="http://www.w3.org/2000/svg" viewBox="0 0 103 19"><path fill-rule="evenodd" clip-rule="evenodd" fill="#FFF" d="M93.5 1c.3 0 .6.2.7.6L95.6 6c.2.5.6.8 1.1.8h4.5c.8 0 1.1 1 .5 1.5L98.1 11c-.4.3-.6.8-.4 1.3l1.4 4.4c.2.8-.6 1.4-1.2.9l-3.6-2.7c-.4-.3-.9-.3-1.3 0l-3.6 2.7c-.6.5-1.5-.2-1.2-.9l1.4-4.4c.2-.5 0-1-.4-1.3l-3.6-2.7c-.6-.5-.3-1.5.5-1.5h4.5c.5 0 .9-.3 1.1-.8l1.4-4.4c-.2-.4.1-.6.4-.6h-21c.3 0 .6.2.7.6L74.6 6c.2.5.6.8 1.1.8h4.5c.8 0 1.1 1 .5 1.5L77.1 11c-.4.3-.6.8-.4 1.3l1.4 4.4c.2.8-.6 1.4-1.2.9l-3.6-2.7c-.4-.3-.9-.3-1.3 0l-3.6 2.7c-.6.5-1.5-.2-1.2-.9l1.4-4.4c.2-.5 0-1-.4-1.3l-3.6-2.7c-.6-.5-.3-1.5.5-1.5h4.5c.5 0 .9-.3 1.1-.8l1.4-4.4c-.2-.4.1-.6.4-.6h-21c.3 0 .6.2.7.6L53.6 6c.2.5.6.8 1.1.8h4.5c.8 0 1.1 1 .5 1.5L56.1 11c-.4.3-.6.8-.4 1.3l1.4 4.4c.2.8-.6 1.4-1.2.9l-3.6-2.7c-.4-.3-.9-.3-1.3 0l-3.6 2.7c-.6.5-1.5-.2-1.2-.9l1.4-4.4c.2-.5 0-1-.4-1.3l-3.6-2.7c-.6-.5-.3-1.5.5-1.5h4.5c.5 0 .9-.3 1.1-.8l1.4-4.4c-.2-.4.1-.6.4-.6h-21c.3 0 .6.2.7.6L32.6 6c.2.5.6.8 1.1.8h4.5c.8 0 1.1 1 .5 1.5L35.1 11c-.4.3-.6.8-.4 1.3l1.4 4.4c.2.8-.6 1.4-1.2.9l-3.6-2.7c-.4-.3-.9-.3-1.3 0l-3.6 2.7c-.6.5-1.5-.2-1.2-.9l1.4-4.4c.2-.5 0-1-.4-1.3l-3.6-2.7c-.6-.5-.3-1.5.5-1.5h4.5c.5 0 .9-.3 1.1-.8l1.4-4.4c-.2-.4.1-.6.4-.6h-21c.3 0 .6.2.7.6L11.6 6c.2.5.6.8 1.1.8h4.5c.8 0 1.1 1 .5 1.5L14.1 11c-.4.3-.6.8-.4 1.3l1.4 4.4c.2.8-.6 1.4-1.2.9l-3.6-2.7c-.4-.3-.9-.3-1.3 0l-3.6 2.7c-.6.5-1.5-.2-1.2-.9l1.4-4.4c.2-.5 0-1-.4-1.3L1.3 8.4c-.6-.5-.3-1.6.5-1.6h4.5c.5 0 .9-.3 1.1-.8l1.4-4.4c.1-.4.4-.6.7-.6H1v17h101V1h-8.5z"/></svg>