<?xml version="1.0" encoding="utf-8"?>
<!-- Generator: Adobe Illustrator 18.1.1, SVG Export Plug-In . SVG Version: 6.00 Build 0)  -->
<!DOCTYPE svg PUBLIC "-//W3C//DTD SVG 1.1//EN" "http://www.w3.org/Graphics/SVG/1.1/DTD/svg11.dtd">
<svg version="1.1" id="Layer_1" xmlns="http://www.w3.org/2000/svg" xmlns:xlink="http://www.w3.org/1999/xlink" x="0px" y="0px"
	 viewBox="0 0 103 19" enable-background="new 0 0 103 19" xml:space="preserve">
<path fill-rule="evenodd" clip-rule="evenodd" fill="#FFFFFF" d="M93.5,1c0.3,0,0.6,0.2,0.7,0.6L95.6,6c0.2,0.5,0.6,0.8,1.1,0.8h4.5
	c0.8,0,1.1,1,0.5,1.5l-3.6,2.7c-0.4,0.3-0.6,0.8-0.4,1.3l1.4,4.4c0.2,0.8-0.6,1.4-1.2,0.9l-3.6-2.7c-0.4-0.3-0.9-0.3-1.3,0l-3.6,2.7
	c-0.6,0.5-1.5-0.2-1.2-0.9l1.4-4.4c0.2-0.5,0-1-0.4-1.3l-3.6-2.7c-0.6-0.5-0.3-1.5,0.5-1.5h4.5c0.5,0,0.9-0.3,1.1-0.8l1.4-4.4
	C92.9,1.2,93.2,1,93.5,1h-21c0.3,0,0.6,0.2,0.7,0.6L74.6,6c0.2,0.5,0.6,0.8,1.1,0.8h4.5c0.8,0,1.1,1,0.5,1.5l-3.6,2.7
	c-0.4,0.3-0.6,0.8-0.4,1.3l1.4,4.4c0.2,0.8-0.6,1.4-1.2,0.9l-3.6-2.7c-0.4-0.3-0.9-0.3-1.3,0l-3.6,2.7c-0.6,0.5-1.5-0.2-1.2-0.9
	l1.4-4.4c0.2-0.5,0-1-0.4-1.3l-3.6-2.7c-0.6-0.5-0.3-1.5,0.5-1.5h4.5c0.5,0,0.9-0.3,1.1-0.8l1.4-4.4C71.9,1.2,72.2,1,72.5,1H51.5
	c0.3,0,0.6,0.2,0.7,0.6L53.6,6c0.2,0.5,0.6,0.8,1.1,0.8h4.5c0.8,0,1.1,1,0.5,1.5l-3.6,2.7c-0.4,0.3-0.6,0.8-0.4,1.3l1.4,4.4
	c0.2,0.8-0.6,1.4-1.2,0.9l-3.6-2.7c-0.4-0.3-0.9-0.3-1.3,0l-3.6,2.7c-0.6,0.5-1.5-0.2-1.2-0.9l1.4-4.4c0.2-0.5,0-1-0.4-1.3l-3.6-2.7
	c-0.6-0.5-0.3-1.5,0.5-1.5h4.5c0.5,0,0.9-0.3,1.1-0.8l1.4-4.4C50.9,1.2,51.2,1,51.5,1H30.5c0.3,0,0.6,0.2,0.7,0.6L32.6,6
	c0.2,0.5,0.6,0.8,1.1,0.8h4.5c0.8,0,1.1,1,0.5,1.5l-3.6,2.7c-0.4,0.3-0.6,0.8-0.4,1.3l1.4,4.4c0.2,0.8-0.6,1.4-1.2,0.9l-3.6-2.7
	c-0.4-0.3-0.9-0.3-1.3,0l-3.6,2.7c-0.6,0.5-1.5-0.2-1.2-0.9l1.4-4.4c0.2-0.5,0-1-0.4-1.3l-3.6-2.7c-0.6-0.5-0.3-1.5,0.5-1.5h4.5
	c0.5,0,0.9-0.3,1.1-0.8l1.4-4.4C29.9,1.2,30.2,1,30.5,1H9.5c0.3,0,0.6,0.2,0.7,0.6L11.6,6c0.2,0.5,0.6,0.8,1.1,0.8h4.5
	c0.8,0,1.1,1,0.5,1.5l-3.6,2.7c-0.4,0.3-0.6,0.8-0.4,1.3l1.4,4.4c0.2,0.8-0.6,1.4-1.2,0.9l-3.6-2.7c-0.4-0.3-0.9-0.3-1.3,0l-3.6,2.7
	c-0.6,0.5-1.5-0.2-1.2-0.9l1.4-4.4c0.2-0.5,0-1-0.4-1.3L1.3,8.4C0.7,7.9,1,6.8,1.8,6.8h4.5c0.5,0,0.9-0.3,1.1-0.8l1.4-4.4
	C8.9,1.2,9.2,1,9.5,1H1v17h101V1H93.5z"/>
</svg>
